# xmcd
#
# Track frame offsets:
#	150
#	10229
#	39348
#	58133
#	91867
#	104670
#	121657
#	144453
#	162709
#	186599
#	202632
#	221143
#	238849
#	252173
#
# Disc length: 3926 seconds
#
# Revision: 0
# Processed by: cddbd v1.5.2PL0 Copyright (c) Steve Scherf et al.
# Submitted via: EasyCDDAExtractor 9.0.0.1
#
DISCID=c80f540e
DTITLE=Gospel Harmony Choir - Concert Saint-Pierre des Cuisines 27 Janvier 200
DTITLE=7
DYEAR=2007
DGENRE=Gospel
TTITLE0=Introduction
TTITLE1=Put your hands
TTITLE2=Bondié limyè mwen
TTITLE3=You're my everything
TTITLE4=Amen
TTITLE5=Jésus nous t'aimons
TTITLE6=Oui je te loue
TTITLE7=A song
TTITLE8=Your love divine
TTITLE9=Instrumental
TTITLE10=Kumbaya
TTITLE11=His eyes is on sparrow
TTITLE12=Kwazé
TTITLE13=Animation
EXTD=
EXTT0=
EXTT1=
EXTT2=
EXTT3=
EXTT4=
EXTT5=
EXTT6=
EXTT7=
EXTT8=
EXTT9=
EXTT10=
EXTT11=
EXTT12=
EXTT13=
PLAYORDER=
